SplineFontDB: 3.0
FontName: koba
FullName: koba
FamilyName: koba
Weight: Regular
Copyright: Copyright (c) 2015, digit.\n\nwhatever damn foss license u want.  :P  \n\nkobayashimaru
UComments: "2015-7-26: Created with FontForge (http://fontforge.org)"
Version: 001.000
ItalicAngle: 0
UnderlinePosition: -140
UnderlineWidth: 70
Ascent: 1000
Descent: 400
InvalidEm: 0
LayerCount: 2
Layer: 0 0 "Back" 1
Layer: 1 0 "Fore" 0
XUID: [1021 484 470090152 16202107]
StyleMap: 0x0000
FSType: 0
OS2Version: 0
OS2_WeightWidthSlopeOnly: 0
OS2_UseTypoMetrics: 1
CreationTime: 1437921966
ModificationTime: 1438170800
OS2TypoAscent: 0
OS2TypoAOffset: 1
OS2TypoDescent: 0
OS2TypoDOffset: 1
OS2TypoLinegap: 126
OS2WinAscent: 0
OS2WinAOffset: 1
OS2WinDescent: 0
OS2WinDOffset: 1
HheadAscent: 0
HheadAOffset: 1
HheadDescent: 0
HheadDOffset: 1
MarkAttachClasses: 1
DEI: 91125
Encoding: ISO8859-1
UnicodeInterp: none
NameList: AGL For New Fonts
DisplaySize: -48
AntiAlias: 1
FitToEm: 0
WinInfo: 0 28 5
BeginPrivate: 0
EndPrivate
BeginChars: 256 95

StartChar: space
Encoding: 32 32 0
Width: 1400
VWidth: 0
Flags: H
LayerCount: 2
Fore
SplineSet
0 0 m 25
 1400 0 l 25
 0 0 l 25
EndSplineSet
Validated: 1
EndChar

StartChar: exclam
Encoding: 33 33 1
Width: 1400
VWidth: 0
Flags: H
LayerCount: 2
Fore
SplineSet
674 256 m 29
 530 796 l 25
 770 928 l 25
 674 256 l 29
714 0 m 25
 534 96 l 25
 770 140 l 25
 714 0 l 25
EndSplineSet
Validated: 1
EndChar

StartChar: quotedbl
Encoding: 34 34 2
Width: 1400
VWidth: 0
Flags: H
LayerCount: 2
Fore
SplineSet
778 656 m 29
 730 924 l 25
 1034 944 l 25
 778 656 l 29
294 636 m 25
 194 812 l 25
 446 932 l 25
 294 636 l 25
EndSplineSet
Validated: 1
EndChar

StartChar: numbersign
Encoding: 35 35 3
Width: 1400
VWidth: 0
Flags: H
LayerCount: 2
Fore
SplineSet
488 548 m 5
 206 488 l 1
 50 660 l 1
 488 548 l 5
476 396 m 25
 106 256 l 1
 0 408 l 1
 476 396 l 25
506 376 m 1
 594 132 l 1
 418 0 l 1
 506 376 l 1
780 336 m 1
 934 104 l 1
 802 0 l 1
 780 336 l 1
786 368 m 1
 1218 360 l 1
 1358 212 l 1
 786 368 l 1
824 556 m 1
 1222 672 l 1
 1334 520 l 1
 824 556 l 1
798 564 m 25
 750 920 l 1
 938 972 l 1
 798 564 l 25
502 576 m 25
 362 928 l 1
 554 984 l 1
 502 576 l 25
EndSplineSet
Validated: 1
EndChar

StartChar: dollar
Encoding: 36 36 4
Width: 1400
VWidth: 0
Flags: H
LayerCount: 2
Fore
SplineSet
542 776 m 1
 26 584 l 1
 134 772 l 1
 542 776 l 1
582 460 m 1
 0 556 l 1
 266 644 l 25
 582 460 l 1
1338 136 m 1
 790 36 l 25
 1054 260 l 1
 1338 136 l 1
782 420 m 25
 1214 436 l 25
 1330 184 l 25
 782 420 l 25
746 576 m 1
 818 -348 l 1
 562 -36 l 1
 746 576 l 1
646 376 m 25
 522 876 l 25
 818 992 l 25
 646 376 l 25
590 76 m 25
 234 28 l 1
 22 280 l 1
 590 76 l 25
770 808 m 1
 1294 860 l 1
 1338 628 l 1
 770 808 l 1
EndSplineSet
Validated: 1
EndChar

StartChar: percent
Encoding: 37 37 5
Width: 1400
VWidth: 0
Flags: H
LayerCount: 2
Fore
SplineSet
834 268 m 25
 1266 104 l 25
 1210 -88 l 25
 834 268 l 25
410 520 m 25
 106 652 l 25
 74 944 l 25
 410 520 l 25
198 -76 m 1
 1194 976 l 1
 1174 700 l 1
 198 -76 l 1
26 -204 m 1
 150 104 l 25
 1094 904 l 1
 26 -204 l 1
EndSplineSet
Validated: 1
EndChar

StartChar: ampersand
Encoding: 38 38 6
Width: 1400
VWidth: 0
Flags: H
LayerCount: 2
Fore
SplineSet
110 20 m 29
 0 232 l 25
 226 576 l 25
 22 732 l 25
 366 972 l 25
 710 740 l 25
 126 692 l 25
 494 504 l 25
 42 220 l 25
 294 72 l 25
 674 244 l 25
 462 380 l 25
 866 364 l 25
 758 484 l 25
 1198 536 l 25
 950 404 l 25
 1126 364 l 25
 862 244 l 25
 1242 20 l 25
 782 148 l 25
 110 20 l 29
EndSplineSet
Validated: 1
EndChar

StartChar: quotesingle
Encoding: 39 39 7
Width: 1400
VWidth: 0
Flags: H
LayerCount: 2
Fore
SplineSet
514 740 m 29
 678 948 l 25
 722 604 l 25
 514 740 l 29
EndSplineSet
Validated: 1
EndChar

StartChar: parenleft
Encoding: 40 40 8
Width: 1400
VWidth: 0
Flags: H
LayerCount: 2
Fore
SplineSet
34 284 m 29
 0 684 l 25
 410 988 l 25
 1178 1000 l 25
 126 652 l 25
 114 284 l 25
 1242 0 l 25
 342 0 l 25
 34 284 l 29
EndSplineSet
Validated: 1
EndChar

StartChar: parenright
Encoding: 41 41 9
Width: 1400
VWidth: 0
Flags: H
LayerCount: 2
Fore
SplineSet
0 20 m 29
 1250 304 l 25
 1246 676 l 25
 0 984 l 25
 930 992 l 25
 1354 652 l 25
 1354 232 l 25
 1010 0 l 25
 0 20 l 29
EndSplineSet
Validated: 1
EndChar

StartChar: asterisk
Encoding: 42 42 10
Width: 1400
VWidth: 0
Flags: H
LayerCount: 2
Fore
SplineSet
178 512 m 29
 470 748 l 25
 50 844 l 25
 486 856 l 25
 626 992 l 25
 794 864 l 25
 1246 856 l 25
 838 736 l 25
 1202 480 l 25
 654 692 l 25
 178 512 l 29
EndSplineSet
Validated: 1
EndChar

StartChar: plus
Encoding: 43 43 11
Width: 1400
VWidth: 0
Flags: H
LayerCount: 2
Fore
SplineSet
656 408 m 1
 758 88 l 1
 582 -84 l 1
 656 408 l 1
708 448 m 1
 1170 512 l 1
 1310 344 l 1
 708 448 l 1
538 820 m 1
 758 932 l 1
 664 484 l 1
 538 820 l 1
38 304 m 1
 22 480 l 1
 620 444 l 29
 38 304 l 1
EndSplineSet
Validated: 1
EndChar

StartChar: comma
Encoding: 44 44 12
Width: 1400
VWidth: 0
Flags: H
LayerCount: 2
Fore
SplineSet
502 32 m 29
 770 124 l 25
 458 -356 l 25
 502 32 l 29
EndSplineSet
Validated: 1
EndChar

StartChar: hyphen
Encoding: 45 45 13
Width: 1400
VWidth: 0
Flags: H
LayerCount: 2
Fore
SplineSet
0 472 m 29
 870 624 l 25
 1326 384 l 25
 0 472 l 29
EndSplineSet
Validated: 1
EndChar

StartChar: period
Encoding: 46 46 14
Width: 1400
VWidth: 0
Flags: H
LayerCount: 2
Fore
SplineSet
442 0 m 29
 658 244 l 25
 878 0 l 25
 442 0 l 29
EndSplineSet
Validated: 1
EndChar

StartChar: slash
Encoding: 47 47 15
Width: 1400
VWidth: 0
Flags: H
LayerCount: 2
Fore
SplineSet
0 -388 m 1
 1162 988 l 5
 1274 660 l 1
 0 -388 l 1
EndSplineSet
Validated: 1
EndChar

StartChar: zero
Encoding: 48 48 16
Width: 1400
VWidth: 0
Flags: H
LayerCount: 2
Fore
SplineSet
64 60 m 25
 38 840 l 1
 1054 940 l 25
 1210 20 l 1
 80 0 l 29
 950 264 l 1
 1026 800 l 1
 106 40 l 25
 862 808 l 1
 330 732 l 1
 64 60 l 25
EndSplineSet
Validated: 1
EndChar

StartChar: one
Encoding: 49 49 17
Width: 1400
VWidth: 0
Flags: H
LayerCount: 2
Fore
SplineSet
0 0 m 29
 634 168 l 25
 602 580 l 25
 210 572 l 25
 906 984 l 25
 742 172 l 25
 1370 0 l 25
 0 0 l 29
EndSplineSet
Validated: 1
EndChar

StartChar: two
Encoding: 50 50 18
Width: 1400
VWidth: 0
Flags: H
LayerCount: 2
Fore
SplineSet
0 0 m 25
 130 280 l 1
 1104 608 l 5
 868 916 l 1
 90 588 l 1
 0 884 l 25
 1350 964 l 1
 970 288 l 25
 170 264 l 1
 1400 0 l 25
 0 0 l 25
EndSplineSet
Validated: 1
EndChar

StartChar: three
Encoding: 51 51 19
Width: 1400
VWidth: 0
Flags: H
LayerCount: 2
Fore
SplineSet
0 984 m 1
 982 988 l 1
 1396 684 l 25
 1110 464 l 25
 1396 256 l 25
 974 0 l 1
 0 0 l 1
 1358 256 l 25
 406 464 l 25
 1354 680 l 25
 0 984 l 1
EndSplineSet
Validated: 1
EndChar

StartChar: four
Encoding: 52 52 20
Width: 1400
VWidth: 0
Flags: H
LayerCount: 2
Fore
SplineSet
78 824 m 1
 482 984 l 1
 172 300 l 29
 726 300 l 1
 558 776 l 25
 910 960 l 25
 770 304 l 25
 1274 324 l 25
 1374 140 l 25
 770 276 l 25
 826 0 l 25
 674 -156 l 1
 710 184 l 1
 146 280 l 1
 78 824 l 1
EndSplineSet
Validated: 1
EndChar

StartChar: five
Encoding: 53 53 21
Width: 1400
VWidth: 0
Flags: H
LayerCount: 2
Fore
SplineSet
60 512 m 29
 1014 480 l 1
 1290 352 l 25
 1294 196 l 25
 1006 0 l 25
 0 0 l 25
 1266 272 l 1
 60 512 l 29
0 968 m 1
 270 864 l 1
 26 516 l 1
 0 968 l 1
0 996 m 1
 1258 980 l 1
 1362 712 l 1
 0 996 l 1
EndSplineSet
Validated: 1
EndChar

StartChar: six
Encoding: 54 54 22
Width: 1400
VWidth: 0
Flags: H
LayerCount: 2
Fore
SplineSet
1362 980 m 1
 1008 452 l 25
 1370 0 l 1
 52 0 l 5
 982 180 l 1
 982 440 l 1
 0 0 l 1
 1362 980 l 1
EndSplineSet
Validated: 1
EndChar

StartChar: seven
Encoding: 55 55 23
Width: 1400
VWidth: 0
Flags: H
LayerCount: 2
Fore
SplineSet
0 0 m 1
 1372 964 l 29
 646 0 l 1
 0 0 l 1
0 556 m 1
 0 932 l 1
 1400 996 l 1
 0 556 l 1
EndSplineSet
Validated: 1
EndChar

StartChar: eight
Encoding: 56 56 24
Width: 1400
VWidth: 0
Flags: H
LayerCount: 2
Fore
SplineSet
286 0 m 1
 0 320 l 1
 290 536 l 1
 0 748 l 1
 278 1000 l 1
 1042 1000 l 1
 1356 748 l 1
 646 940 l 1
 88 744 l 25
 646 612 l 1
 1360 720 l 1
 1074 504 l 1
 1348 292 l 1
 662 496 l 1
 60 316 l 25
 662 76 l 1
 1356 264 l 5
 1054 0 l 1
 286 0 l 1
EndSplineSet
Validated: 1
EndChar

StartChar: nine
Encoding: 57 57 25
Width: 1400
VWidth: 0
Flags: H
LayerCount: 2
Fore
SplineSet
0 1000 m 1
 1400 996 l 1
 850 0 l 1
 334 0 l 1
 1084 500 l 1
 24 604 l 5
 1232 744 l 1
 626 992 l 1
 0 628 l 1
 0 1000 l 1
EndSplineSet
Validated: 1
EndChar

StartChar: colon
Encoding: 58 58 26
Width: 1400
VWidth: 0
Flags: H
LayerCount: 2
Fore
SplineSet
510 0 m 29
 790 256 l 25
 1050 0 l 25
 510 0 l 29
542 592 m 25
 738 812 l 25
 978 596 l 25
 542 592 l 25
EndSplineSet
Validated: 1
EndChar

StartChar: semicolon
Encoding: 59 59 27
Width: 1400
VWidth: 0
Flags: H
LayerCount: 2
Fore
SplineSet
558 84 m 29
 926 268 l 25
 714 -396 l 25
 558 84 l 29
458 596 m 25
 722 840 l 25
 1034 580 l 25
 458 596 l 25
EndSplineSet
Validated: 1
EndChar

StartChar: less
Encoding: 60 60 28
Width: 1400
VWidth: 0
Flags: H
LayerCount: 2
Fore
SplineSet
0 424 m 29
 846 988 l 25
 1400 976 l 25
 42 420 l 25
 1400 0 l 25
 742 0 l 25
 0 424 l 29
EndSplineSet
Validated: 1
EndChar

StartChar: equal
Encoding: 61 61 29
Width: 1400
VWidth: 0
Flags: HW
LayerCount: 2
Fore
SplineSet
46 256 m 25
 1374 256 l 25
 690 64 l 25
 46 256 l 25
46 568 m 1
 770 756 l 25
 1358 560 l 1
 46 568 l 1
EndSplineSet
Validated: 1
EndChar

StartChar: greater
Encoding: 62 62 30
Width: 1400
VWidth: 0
Flags: H
LayerCount: 2
Fore
SplineSet
0 988 m 1
 518 992 l 1
 1400 488 l 29
 546 0 l 1
 0 0 l 1
 1300 488 l 25
 0 988 l 1
EndSplineSet
Validated: 1
EndChar

StartChar: question
Encoding: 63 63 31
Width: 1400
VWidth: 0
Flags: H
LayerCount: 2
Fore
SplineSet
486 0 m 29
 714 256 l 25
 970 0 l 25
 486 0 l 29
214 612 m 25
 0 996 l 25
 1400 992 l 25
 858 600 l 25
 918 532 l 25
 534 660 l 25
 1338 968 l 25
 1174 980 l 25
 114 904 l 25
 306 892 l 25
 214 612 l 25
EndSplineSet
Validated: 1
EndChar

StartChar: at
Encoding: 64 64 32
Width: 1400
VWidth: 0
Flags: H
LayerCount: 2
Fore
SplineSet
562 376 m 25
 558 576 l 1
 836 420 l 1
 1268 688 l 1
 632 916 l 1
 124 532 l 1
 520 88 l 5
 1162 176 l 1
 1374 0 l 25
 22 92 l 25
 154 932 l 1
 1400 992 l 25
 1266 384 l 1
 562 376 l 25
EndSplineSet
Validated: 1
EndChar

StartChar: A
Encoding: 65 65 33
Width: 1400
VWidth: 0
Flags: H
LayerCount: 2
Fore
SplineSet
0 0 m 29
 166 840 l 25
 22 992 l 25
 1018 988 l 25
 1400 0 l 25
 874 296 l 25
 862 412 l 25
 818 300 l 25
 378 448 l 25
 874 488 l 25
 854 960 l 25
 802 776 l 25
 78 976 l 25
 530 720 l 25
 0 0 l 29
EndSplineSet
Validated: 1
EndChar

StartChar: B
Encoding: 66 66 34
Width: 1400
VWidth: 0
Flags: H
LayerCount: 2
Fore
SplineSet
0 0 m 25
 86 888 l 25
 246 928 l 25
 0 1000 l 25
 986 996 l 25
 1400 724 l 25
 1146 436 l 25
 1400 352 l 25
 1278 -36 l 1
 62 0 l 1
 186 236 l 1
 1246 0 l 1
 1126 80 l 25
 1370 320 l 1
 298 452 l 29
 1190 556 l 1
 1078 588 l 25
 1350 716 l 25
 434 908 l 25
 0 0 l 25
EndSplineSet
Validated: 1
EndChar

StartChar: C
Encoding: 67 67 35
Width: 1400
VWidth: 0
Flags: H
LayerCount: 2
Fore
SplineSet
1368 768 m 1
 1228 656 l 25
 1284 732 l 25
 1148 708 l 1
 674 972 l 1
 80 372 l 1
 1400 60 l 1
 482 0 l 1
 0 360 l 1
 0 752 l 1
 674 1004 l 1
 1368 768 l 1
EndSplineSet
Validated: 1
EndChar

StartChar: D
Encoding: 68 68 36
Width: 1400
VWidth: 0
Flags: H
LayerCount: 2
Fore
SplineSet
0 988 m 25
 942 988 l 25
 1400 668 l 25
 1400 156 l 25
 1198 0 l 25
 166 0 l 25
 1102 236 l 25
 990 80 l 25
 1370 168 l 25
 946 944 l 25
 318 872 l 1
 318 136 l 5
 526 124 l 1
 0 0 l 1
 266 852 l 25
 0 988 l 25
EndSplineSet
Validated: 1
EndChar

StartChar: E
Encoding: 69 69 37
Width: 1400
VWidth: 0
Flags: H
LayerCount: 2
Fore
SplineSet
122 868 m 25
 0 988 l 25
 1400 984 l 25
 1210 640 l 25
 1298 928 l 25
 1210 804 l 25
 258 900 l 1
 290 504 l 25
 1082 476 l 1
 290 364 l 25
 234 64 l 25
 278 148 l 25
 1198 40 l 25
 1298 208 l 25
 1400 0 l 25
 0 0 l 25
 190 116 l 25
 26 88 l 25
 122 868 l 25
EndSplineSet
Validated: 1
EndChar

StartChar: F
Encoding: 70 70 38
Width: 1400
VWidth: 0
Flags: H
LayerCount: 2
Fore
SplineSet
0 992 m 1
 1400 992 l 25
 1266 708 l 25
 1290 928 l 25
 1234 784 l 1
 194 968 l 1
 166 544 l 1
 826 560 l 1
 162 412 l 1
 136 96 l 1
 296 124 l 1
 88 24 l 1
 338 48 l 1
 330 -4 l 25
 60 -4 l 1
 0 992 l 1
EndSplineSet
Validated: 1
EndChar

StartChar: G
Encoding: 71 71 39
Width: 1400
VWidth: 0
Flags: H
LayerCount: 2
Fore
SplineSet
1366 524 m 1
 1370 0 l 25
 318 0 l 25
 0 304 l 25
 0 676 l 25
 462 980 l 25
 1234 988 l 25
 46 640 l 25
 366 44 l 1
 1106 384 l 1
 350 568 l 1
 1366 524 l 1
EndSplineSet
Validated: 1
EndChar

StartChar: H
Encoding: 72 72 40
Width: 1400
VWidth: 0
Flags: H
LayerCount: 2
Fore
SplineSet
0 0 m 29
 0 992 l 25
 262 980 l 25
 166 500 l 25
 1058 528 l 25
 1066 980 l 25
 1400 988 l 25
 1290 0 l 25
 1046 424 l 25
 166 452 l 25
 0 0 l 29
EndSplineSet
Validated: 1
EndChar

StartChar: I
Encoding: 73 73 41
Width: 1400
VWidth: 0
Flags: H
LayerCount: 2
Fore
SplineSet
0 988 m 29
 1400 972 l 25
 946 784 l 25
 822 196 l 25
 1400 0 l 25
 0 0 l 25
 770 176 l 25
 682 772 l 25
 0 988 l 29
EndSplineSet
Validated: 1
EndChar

StartChar: J
Encoding: 74 74 42
Width: 1400
VWidth: 0
Flags: H
LayerCount: 2
Fore
SplineSet
0 984 m 1
 1400 984 l 25
 1002 740 l 25
 1122 0 l 25
 46 -384 l 25
 842 52 l 1
 942 732 l 29
 0 984 l 1
EndSplineSet
Validated: 1
EndChar

StartChar: K
Encoding: 75 75 43
Width: 1400
VWidth: 0
Flags: H
LayerCount: 2
Fore
SplineSet
0 0 m 25
 70 984 l 25
 314 472 l 25
 1400 988 l 1
 654 420 l 25
 1400 0 l 1
 302 404 l 25
 0 0 l 25
EndSplineSet
Validated: 1
EndChar

StartChar: L
Encoding: 76 76 44
Width: 1400
VWidth: 0
Flags: H
LayerCount: 2
Fore
SplineSet
76 976 m 29
 520 984 l 25
 120 84 l 25
 1212 228 l 25
 1164 64 l 25
 1316 260 l 25
 1284 0 l 25
 0 0 l 25
 76 976 l 29
EndSplineSet
Validated: 1
EndChar

StartChar: M
Encoding: 77 77 45
Width: 1400
VWidth: 0
Flags: H
LayerCount: 2
Fore
SplineSet
0 0 m 29
 72 988 l 25
 536 988 l 25
 304 912 l 25
 700 52 l 25
 1096 868 l 25
 1264 896 l 25
 876 980 l 25
 1400 988 l 25
 1400 0 l 25
 1192 660 l 25
 748 68 l 25
 916 120 l 25
 748 24 l 25
 896 0 l 25
 492 0 l 25
 644 36 l 25
 264 676 l 25
 0 0 l 29
EndSplineSet
Validated: 1
EndChar

StartChar: N
Encoding: 78 78 46
Width: 1400
VWidth: 0
Flags: H
LayerCount: 2
Fore
SplineSet
0 0 m 29
 80 860 l 25
 280 880 l 25
 0 988 l 25
 348 976 l 25
 1220 132 l 25
 960 984 l 25
 1400 996 l 25
 1356 0 l 25
 116 828 l 25
 320 580 l 25
 60 120 l 25
 188 168 l 25
 0 0 l 29
EndSplineSet
Validated: 1
EndChar

StartChar: O
Encoding: 79 79 47
Width: 1400
VWidth: 0
Flags: H
LayerCount: 2
Fore
SplineSet
872 948 m 1
 1028 960 l 1
 1400 656 l 1
 1400 248 l 25
 1056 0 l 25
 336 0 l 25
 0 188 l 1
 28 664 l 25
 396 84 l 1
 1348 308 l 1
 872 948 l 1
0 672 m 1
 280 992 l 1
 1004 992 l 25
 0 672 l 1
EndSplineSet
Validated: 1
EndChar

StartChar: P
Encoding: 80 80 48
Width: 1400
VWidth: 0
Flags: H
LayerCount: 2
Fore
SplineSet
0 872 m 25
 496 0 l 25
 0 0 l 25
 232 76 l 25
 56 92 l 25
 0 872 l 25
48 960 m 25
 1104 960 l 25
 1372 708 l 25
 1116 440 l 25
 336 444 l 25
 1308 708 l 25
 48 960 l 25
EndSplineSet
Validated: 1
EndChar

StartChar: Q
Encoding: 81 81 49
Width: 1400
VWidth: 0
Flags: H
LayerCount: 2
Fore
SplineSet
536 0 m 29
 20 184 l 25
 0 744 l 25
 308 988 l 25
 1108 984 l 25
 1400 660 l 25
 1376 244 l 25
 1036 24 l 25
 1400 -384 l 25
 116 -312 l 25
 1056 -176 l 25
 600 52 l 25
 1300 444 l 25
 684 920 l 25
 72 496 l 25
 536 0 l 29
EndSplineSet
Validated: 1
EndChar

StartChar: R
Encoding: 82 82 50
Width: 1400
VWidth: 0
Flags: H
LayerCount: 2
Fore
SplineSet
0 24 m 29
 140 820 l 25
 408 836 l 25
 0 988 l 25
 1108 988 l 25
 1400 684 l 25
 1208 448 l 25
 532 568 l 25
 1352 676 l 25
 340 932 l 25
 452 824 l 25
 172 616 l 25
 1400 0 l 25
 184 312 l 25
 0 24 l 29
EndSplineSet
Validated: 1
EndChar

StartChar: S
Encoding: 83 83 51
Width: 1400
VWidth: 0
Flags: H
LayerCount: 2
Fore
SplineSet
356 984 m 25
 1400 984 l 25
 100 688 l 25
 956 572 l 25
 1400 312 l 25
 992 0 l 25
 0 0 l 25
 1252 292 l 1
 176 440 l 29
 0 680 l 1
 356 984 l 25
EndSplineSet
Validated: 1
EndChar

StartChar: T
Encoding: 84 84 52
Width: 1400
VWidth: 0
Flags: H
LayerCount: 2
Fore
SplineSet
20 676 m 1
 0 988 l 25
 1400 992 l 25
 1344 664 l 1
 1248 944 l 29
 1268 808 l 1
 748 884 l 25
 904 0 l 25
 476 0 l 25
 820 100 l 25
 512 60 l 25
 676 884 l 1
 92 764 l 1
 116 924 l 1
 20 676 l 1
EndSplineSet
Validated: 1
EndChar

StartChar: U
Encoding: 85 85 53
Width: 1400
VWidth: 0
Flags: H
LayerCount: 2
Fore
SplineSet
0 992 m 1
 384 976 l 1
 240 320 l 25
 720 48 l 25
 1244 248 l 25
 1020 816 l 25
 1212 884 l 25
 940 960 l 25
 1368 924 l 1
 1332 0 l 5
 68 0 l 1
 0 992 l 1
EndSplineSet
Validated: 1
EndChar

StartChar: V
Encoding: 86 86 54
Width: 1400
VWidth: 0
Flags: H
LayerCount: 2
Fore
SplineSet
0 992 m 1
 708 332 l 1
 1400 992 l 1
 696 -80 l 1
 0 992 l 1
EndSplineSet
Validated: 1
EndChar

StartChar: W
Encoding: 87 87 55
Width: 1400
VWidth: 0
Flags: H
LayerCount: 2
Fore
SplineSet
0 996 m 25
 400 520 l 25
 716 980 l 25
 1008 520 l 25
 1400 992 l 25
 1016 0 l 1
 720 892 l 29
 376 0 l 1
 0 996 l 25
EndSplineSet
Validated: 1
EndChar

StartChar: X
Encoding: 88 88 56
Width: 1400
VWidth: 0
Flags: H
LayerCount: 2
Fore
SplineSet
28 984 m 1
 740 656 l 25
 1400 992 l 1
 880 476 l 25
 1400 0 l 1
 740 360 l 25
 0 0 l 1
 616 536 l 25
 28 984 l 1
EndSplineSet
Validated: 1
EndChar

StartChar: Y
Encoding: 89 89 57
Width: 1400
VWidth: 0
Flags: H
LayerCount: 2
Fore
SplineSet
0 988 m 29
 408 984 l 25
 140 908 l 25
 384 880 l 25
 276 592 l 25
 660 472 l 25
 1224 592 l 25
 1032 984 l 25
 1400 996 l 25
 1316 500 l 25
 760 316 l 25
 876 56 l 25
 636 20 l 25
 904 -44 l 25
 424 0 l 25
 612 312 l 25
 88 484 l 25
 0 988 l 29
EndSplineSet
Validated: 1
EndChar

StartChar: Z
Encoding: 90 90 58
Width: 1400
VWidth: 0
Flags: H
LayerCount: 2
Fore
SplineSet
0 984 m 1
 1400 956 l 1
 608 324 l 29
 1400 0 l 1
 0 0 l 1
 792 580 l 25
 0 984 l 1
EndSplineSet
Validated: 1
EndChar

StartChar: bracketleft
Encoding: 91 91 59
Width: 1400
VWidth: 0
Flags: H
LayerCount: 2
Fore
SplineSet
1400 992 m 25
 216 756 l 25
 240 228 l 25
 1400 0 l 25
 0 0 l 25
 0 988 l 25
 1400 992 l 25
EndSplineSet
Validated: 1
EndChar

StartChar: backslash
Encoding: 92 92 60
Width: 1400
VWidth: 0
Flags: H
LayerCount: 2
Fore
SplineSet
24 792 m 29
 392 980 l 29
 1360 -344 l 29
 24 792 l 29
EndSplineSet
Validated: 1
EndChar

StartChar: bracketright
Encoding: 93 93 61
Width: 1400
VWidth: 0
Flags: H
LayerCount: 2
Fore
SplineSet
0 988 m 29
 1400 988 l 25
 1400 0 l 25
 0 0 l 25
 1156 228 l 25
 1144 776 l 25
 0 988 l 29
EndSplineSet
Validated: 1
EndChar

StartChar: asciicircum
Encoding: 94 94 62
Width: 1400
VWidth: 0
Flags: H
LayerCount: 2
Fore
SplineSet
0 520 m 29
 716 980 l 25
 1400 496 l 25
 712 616 l 25
 0 520 l 29
EndSplineSet
Validated: 1
EndChar

StartChar: underscore
Encoding: 95 95 63
Width: 1400
VWidth: 0
Flags: H
LayerCount: 2
Fore
SplineSet
0 0 m 25
 1368 40 l 25
 1400 -196 l 25
 1068 -176 l 25
 1260 -72 l 25
 196 -168 l 25
 168 -28 l 25
 60 -240 l 25
 0 0 l 25
EndSplineSet
Validated: 1
EndChar

StartChar: grave
Encoding: 96 96 64
Width: 1400
VWidth: 0
Flags: H
LayerCount: 2
Fore
SplineSet
380 768 m 29
 680 996 l 25
 888 532 l 25
 380 768 l 29
EndSplineSet
Validated: 1
EndChar

StartChar: a
Encoding: 97 97 65
Width: 1400
VWidth: 0
Flags: H
LayerCount: 2
Fore
SplineSet
100 0 m 1
 0 152 l 25
 0 344 l 25
 88 492 l 25
 880 492 l 25
 984 328 l 25
 1092 492 l 25
 1368 504 l 25
 1400 0 l 25
 176 0 l 1
 136 120 l 25
 1028 52 l 1
 664 424 l 1
 172 324 l 29
 100 0 l 1
EndSplineSet
Validated: 1
EndChar

StartChar: b
Encoding: 98 98 66
Width: 1400
VWidth: 0
Flags: H
LayerCount: 2
Fore
SplineSet
20 980 m 25
 244 964 l 25
 176 144 l 25
 1156 96 l 25
 1172 332 l 17
 568 468 l 5
 700 348 l 1
 388 460 l 1
 284 296 l 1
 308 492 l 1
 208 324 l 1
 248 596 l 1
 524 456 l 1
 464 504 l 9
 1152 456 l 25
 1400 356 l 25
 1400 136 l 25
 1160 0 l 25
 0 0 l 25
 140 124 l 25
 20 980 l 25
EndSplineSet
Validated: 1
EndChar

StartChar: c
Encoding: 99 99 67
Width: 1400
VWidth: 0
Flags: H
LayerCount: 2
Fore
SplineSet
1372 468 m 25
 1140 344 l 1
 1216 432 l 1
 232 352 l 1
 128 144 l 1
 984 68 l 25
 912 52 l 25
 1140 0 l 25
 256 0 l 25
 0 128 l 25
 40 356 l 25
 416 500 l 25
 1372 468 l 25
EndSplineSet
Validated: 1
EndChar

StartChar: d
Encoding: 100 100 68
Width: 1400
VWidth: 0
Flags: H
LayerCount: 2
Fore
SplineSet
24 200 m 25
 0 420 l 25
 276 520 l 25
 1020 480 l 25
 936 340 l 25
 940 440 l 25
 388 388 l 25
 132 368 l 25
 132 120 l 1
 1260 132 l 5
 776 976 l 1
 1356 972 l 1
 1064 872 l 25
 1212 880 l 25
 1400 0 l 25
 276 0 l 25
 24 200 l 25
EndSplineSet
Validated: 1
EndChar

StartChar: e
Encoding: 101 101 69
Width: 1400
VWidth: 0
Flags: H
LayerCount: 2
Fore
SplineSet
1368 0 m 25
 240 0 l 1
 0 120 l 25
 0 372 l 25
 396 520 l 25
 976 504 l 1
 1400 368 l 25
 1400 168 l 1
 252 232 l 25
 1280 296 l 1
 440 464 l 25
 112 196 l 1
 1368 0 l 25
EndSplineSet
Validated: 1
EndChar

StartChar: f
Encoding: 102 102 70
Width: 1400
VWidth: 0
Flags: H
LayerCount: 2
Fore
SplineSet
1352 976 m 25
 1220 576 l 25
 1272 892 l 25
 1156 772 l 25
 812 824 l 25
 728 544 l 25
 1172 408 l 25
 692 324 l 25
 896 80 l 25
 692 0 l 25
 992 0 l 25
 28 -404 l 25
 452 -44 l 25
 488 340 l 25
 96 448 l 25
 528 564 l 25
 604 856 l 25
 1352 976 l 25
EndSplineSet
Validated: 1
EndChar

StartChar: g
Encoding: 103 103 71
Width: 1400
VWidth: 0
Flags: H
LayerCount: 2
Fore
SplineSet
180 0 m 25
 24 136 l 25
 0 392 l 25
 232 508 l 25
 584 532 l 25
 1064 444 l 25
 1376 552 l 25
 1000 -128 l 25
 1356 -252 l 25
 1400 -396 l 25
 188 -396 l 25
 0 -268 l 25
 92 -172 l 25
 200 -352 l 25
 196 -216 l 1
 1300 -296 l 5
 800 -172 l 1
 1020 -20 l 1
 236 0 l 1
 232 164 l 1
 280 32 l 1
 292 156 l 1
 1016 32 l 9
 1060 388 l 1
 240 364 l 25
 180 0 l 25
EndSplineSet
Validated: 1
EndChar

StartChar: h
Encoding: 104 104 72
Width: 1400
VWidth: 0
Flags: H
LayerCount: 2
Fore
SplineSet
0 896 m 1
 432 980 l 1
 200 424 l 29
 992 544 l 1
 1400 396 l 25
 1400 0 l 25
 1104 0 l 25
 1344 56 l 25
 1156 48 l 25
 1348 328 l 1
 156 352 l 1
 0 0 l 1
 0 896 l 1
EndSplineSet
Validated: 1
EndChar

StartChar: i
Encoding: 105 105 73
Width: 1400
VWidth: 0
Flags: H
LayerCount: 2
Fore
SplineSet
512 768 m 5
 708 992 l 1
 892 712 l 1
 512 768 l 5
484 420 m 1
 932 508 l 25
 704 96 l 1
 988 32 l 1
 896 120 l 1
 1112 0 l 1
 340 0 l 1
 632 84 l 1
 484 420 l 1
EndSplineSet
Validated: 1
EndChar

StartChar: j
Encoding: 106 106 74
Width: 1400
VWidth: 0
Flags: H
LayerCount: 2
Fore
SplineSet
536 644 m 25
 1224 528 l 1
 708 556 l 25
 1044 460 l 1
 1240 -60 l 25
 0 -396 l 25
 1108 120 l 25
 944 96 l 25
 1064 204 l 25
 536 644 l 25
524 888 m 25
 988 980 l 25
 1072 704 l 25
 524 888 l 25
EndSplineSet
Validated: 1
EndChar

StartChar: k
Encoding: 107 107 75
Width: 1400
VWidth: 0
Flags: H
LayerCount: 2
Fore
SplineSet
32 948 m 25
 508 960 l 1
 296 456 l 25
 808 556 l 25
 624 640 l 25
 1132 656 l 25
 812 436 l 25
 1296 96 l 1
 1180 332 l 25
 1400 0 l 1
 712 24 l 25
 1244 56 l 1
 280 384 l 25
 140 0 l 1
 32 948 l 25
EndSplineSet
Validated: 1
EndChar

StartChar: l
Encoding: 108 108 76
Width: 1400
VWidth: 0
Flags: H
LayerCount: 2
Fore
SplineSet
20 820 m 25
 544 980 l 25
 428 124 l 1
 612 -20 l 25
 1400 108 l 1
 480 -212 l 1
 560 -60 l 25
 24 76 l 1
 176 64 l 25
 444 852 l 1
 20 820 l 25
EndSplineSet
Validated: 1
EndChar

StartChar: m
Encoding: 109 109 77
Width: 1400
VWidth: 0
Flags: H
LayerCount: 2
Fore
SplineSet
0 0 m 25
 148 616 l 25
 168 360 l 25
 324 528 l 25
 668 428 l 25
 836 516 l 1
 1280 356 l 25
 1400 0 l 1
 1140 0 l 1
 1228 308 l 25
 740 304 l 1
 828 0 l 1
 560 0 l 25
 652 340 l 1
 300 332 l 1
 80 84 l 1
 236 0 l 1
 0 0 l 25
EndSplineSet
Validated: 1
EndChar

StartChar: n
Encoding: 110 110 78
Width: 1400
VWidth: 0
Flags: H
LayerCount: 2
Fore
SplineSet
0 0 m 25
 128 324 l 25
 0 480 l 25
 356 508 l 25
 260 380 l 25
 948 540 l 1
 1300 356 l 25
 1400 0 l 1
 1036 0 l 1
 1244 320 l 1
 296 284 l 1
 96 56 l 25
 220 0 l 25
 0 0 l 25
EndSplineSet
Validated: 1
EndChar

StartChar: o
Encoding: 111 111 79
Width: 1400
VWidth: 0
Flags: HO
LayerCount: 2
Fore
SplineSet
20 360 m 25
 260 492 l 25
 1184 472 l 25
 1380 308 l 25
 1400 116 l 25
 1060 0 l 25
 284 0 l 1
 356 100 l 25
 1064 88 l 1
 1320 212 l 25
 1076 380 l 25
 332 384 l 25
 104 228 l 1
 332 100 l 25
 224 0 l 1
 0 108 l 25
 20 360 l 25
EndSplineSet
Validated: 1
EndChar

StartChar: p
Encoding: 112 112 80
Width: 1400
VWidth: 0
Flags: H
LayerCount: 2
Fore
SplineSet
0 500 m 1
 1028 524 l 25
 1400 352 l 25
 1400 132 l 25
 1236 0 l 25
 232 44 l 25
 372 220 l 25
 372 112 l 25
 1304 220 l 25
 396 416 l 1
 0 -400 l 25
 0 500 l 1
EndSplineSet
Validated: 1
EndChar

StartChar: q
Encoding: 113 113 81
Width: 1400
VWidth: 0
Flags: H
LayerCount: 2
Fore
SplineSet
316 -40 m 25
 0 124 l 1
 112 400 l 25
 732 496 l 25
 1120 280 l 25
 1012 -252 l 25
 1400 -92 l 25
 1352 -400 l 25
 644 -260 l 25
 940 0 l 1
 252 32 l 25
 976 176 l 1
 652 400 l 25
 96 156 l 1
 316 -40 l 25
EndSplineSet
Validated: 1
EndChar

StartChar: r
Encoding: 114 114 82
Width: 1400
VWidth: 0
Flags: H
LayerCount: 2
Fore
SplineSet
340 0 m 9
 0 0 l 1
 76 396 l 25
 0 544 l 25
 272 376 l 25
 976 552 l 25
 1400 352 l 25
 1220 228 l 25
 1288 344 l 25
 580 384 l 1
 280 328 l 5
 160 80 l 1
 340 0 l 9
EndSplineSet
Validated: 1
EndChar

StartChar: s
Encoding: 115 115 83
Width: 1400
VWidth: 0
Flags: H
LayerCount: 2
Fore
SplineSet
1400 496 m 1
 352 376 l 1
 1368 240 l 1
 1400 0 l 1
 0 0 l 25
 92 112 l 25
 68 36 l 25
 1276 112 l 25
 0 368 l 1
 792 568 l 25
 1400 496 l 1
EndSplineSet
Validated: 1
EndChar

StartChar: t
Encoding: 116 116 84
Width: 1400
VWidth: 0
Flags: H
LayerCount: 2
Fore
SplineSet
0 492 m 1
 68 664 l 1
 60 524 l 1
 580 536 l 9
 544 756 l 1
 792 924 l 25
 716 532 l 25
 1316 564 l 25
 1400 316 l 1
 692 396 l 25
 676 204 l 1
 1036 -108 l 1
 528 0 l 29
 632 148 l 1
 592 412 l 25
 0 492 l 1
EndSplineSet
Validated: 1
EndChar

StartChar: u
Encoding: 117 117 85
Width: 1400
VWidth: 0
Flags: H
LayerCount: 2
Fore
SplineSet
0 504 m 29
 300 516 l 25
 64 32 l 25
 1020 200 l 25
 1312 32 l 25
 968 508 l 25
 1400 560 l 25
 1400 0 l 25
 0 0 l 25
 0 504 l 29
EndSplineSet
Validated: 1
EndChar

StartChar: v
Encoding: 118 118 86
Width: 1400
VWidth: 0
Flags: H
LayerCount: 2
Fore
SplineSet
0 500 m 25
 488 500 l 25
 304 420 l 25
 704 44 l 25
 1080 408 l 25
 872 488 l 25
 1400 512 l 25
 780 0 l 1
 504 -52 l 25
 616 0 l 1
 0 500 l 25
EndSplineSet
Validated: 1
EndChar

StartChar: w
Encoding: 119 119 87
Width: 1400
VWidth: 0
Flags: H
LayerCount: 2
Fore
SplineSet
0 552 m 29
 348 216 l 29
 700 436 l 29
 1016 200 l 29
 1400 576 l 29
 1092 0 l 29
 688 204 l 29
 264 0 l 29
 0 552 l 29
EndSplineSet
Validated: 1
EndChar

StartChar: x
Encoding: 120 120 88
Width: 1400
VWidth: 0
Flags: H
LayerCount: 2
Fore
SplineSet
0 532 m 1
 288 560 l 25
 136 512 l 1
 708 332 l 25
 1192 456 l 25
 1128 512 l 25
 1400 500 l 1
 940 256 l 25
 1400 0 l 1
 1040 0 l 25
 1200 40 l 25
 712 176 l 1
 168 32 l 1
 356 0 l 1
 0 0 l 1
 528 260 l 25
 0 532 l 1
EndSplineSet
Validated: 1
EndChar

StartChar: y
Encoding: 121 121 89
Width: 1400
VWidth: 0
Flags: H
LayerCount: 2
Fore
SplineSet
0 516 m 29
 900 92 l 25
 1400 560 l 25
 1024 -392 l 25
 0 -304 l 25
 896 -184 l 25
 0 516 l 29
EndSplineSet
Validated: 1
EndChar

StartChar: z
Encoding: 122 122 90
Width: 1400
VWidth: 0
Flags: H
LayerCount: 2
Fore
SplineSet
0 496 m 29
 1400 500 l 25
 616 180 l 25
 1400 0 l 25
 0 0 l 25
 736 316 l 25
 0 496 l 29
EndSplineSet
Validated: 1
EndChar

StartChar: braceleft
Encoding: 123 123 91
Width: 1400
VWidth: 0
Flags: H
LayerCount: 2
Fore
SplineSet
1400 992 m 29
 568 756 l 5
 792 488 l 29
 604 232 l 29
 1400 0 l 5
 592 0 l 5
 360 184 l 29
 532 372 l 29
 4 520 l 29
 540 584 l 29
 424 788 l 5
 628 984 l 29
 1400 992 l 29
EndSplineSet
Validated: 1
EndChar

StartChar: bar
Encoding: 124 124 92
Width: 1400
VWidth: 0
Flags: H
LayerCount: 2
Fore
SplineSet
556 968 m 29
 908 1000 l 25
 768 -324 l 25
 848 32 l 25
 868 -376 l 25
 584 -336 l 25
 556 968 l 29
EndSplineSet
Validated: 1
EndChar

StartChar: braceright
Encoding: 125 125 93
Width: 1400
VWidth: 0
Flags: HW
LayerCount: 2
Fore
SplineSet
4 4 m 25
 836 240 l 1
 612 508 l 25
 800 764 l 25
 4 996 l 1
 812 996 l 1
 1044 812 l 25
 872 624 l 25
 1400 476 l 25
 864 412 l 25
 980 208 l 1
 776 12 l 25
 4 4 l 25
EndSplineSet
Validated: 1
EndChar

StartChar: asciitilde
Encoding: 126 126 94
Width: 1400
VWidth: 0
Flags: H
LayerCount: 2
Fore
SplineSet
72 268 m 29
 420 744 l 25
 1020 412 l 25
 1352 692 l 25
 984 184 l 25
 404 520 l 25
 72 268 l 29
EndSplineSet
Validated: 1
EndChar
